<?xml version="1.0" encoding="UTF-8"?>
<svg version="1.1" viewBox="0 0 1781 2048" width="461" height="530" xmlns="http://www.w3.org/2000/svg">
<path transform="translate(1777)" d="m0 0h4v2048h-1742l-17-17-10-14-8-20-3-20v-11l3-19 6-21 8-19 10-18 16-24 13-16 11-14 11-13 7-9 11-13 8-10 14-17 11-13 8-10 14-17 11-14 12-14 11-14 12-14 9-11 13-16 9-11 11-13 8-10 14-17 9-11 8-10 11-13 11-14 12-14 9-11 8-10 11-13 11-14 10-12 9-11 14-17 9-11 11-13 11-14 12-14 11-14 12-14 8-10 9-11 8-10 11-13 8-10 28-34 9-11 14-17 13-16 9-11 13-16 11-13 8-10 11-13 8-10 14-17 18-22 11-13 10-13 12-14 8-10 28-34 9-11 14-17 13-16 11-13 8-10 13-16 11-13 8-10 9-11 28-34 9-11 13-16 14-17 11-13 8-10 18-22 11-13 9-12h2l2-4 11-14 12-14 7-9 11-13 8-10 14-17 9-11 28-34 11-13 7-9 14-17 18-22 14-17 9-11 11-13 8-10 14-17 18-22 13-16 9-11 11-13 11-14 12-14 11-14 12-14 11-14 11-13 8-10 28-34 11-13 11-14 12-14 7-9 11-13 7-9 14-17 9-11 11-13 7-8 10-11 7-8 18-18 8-7 11-10 14-11 11-9 19-14 27-18 21-13 24-14 22-12 23-11 24-11 41-16 36-12 32-9z" fill="#247776"/>
</svg>
