<?xml version="1.0" encoding="UTF-8"?>
<svg version="1.1" viewBox="0 0 2048 2048" width="140" height="140" xmlns="http://www.w3.org/2000/svg">
<path transform="translate(1845)" d="m0 0h203v2048h-1892l-37-9-26-8-21-8-17-9-15-11-10-9-8-9-9-14-13-26v-58l5-11 10-25 10-22 13-21 14-21 16-20 11-14 13-15 11-14 7-8 9-11 12-14 22-26 9-11 11-13 8-10 9-11 24-28 9-10 18-22 26-32 9-11h2l2-4 8-10 9-10 9-11 11-13 10-13 9-11 11-13 8-9 9-11 13-15 8-10 11-13 9-11 13-16 9-10 7-9 8-9 18-22 11-13 11-14 24-28 9-11 9-10 7-9 28-34 9-11 9-10 9-11 9-10 11-14 8-9 11-14 11-13 7-8 12-14 9-11 10-12 9-11 8-9 11-14 11-13 12-14 13-15 27-33 13-16 9-11 9-10 7-8 9-11 7-8 7-9 11-13 11-14 12-14 9-11 10-11 7-9 8-9 8-10 27-33 12-14 9-10 8-10 7-8 7-9 12-14 11-14 11-13 12-14 11-13 7-8 11-14 12-14 9-11 13-16 13-15 22-26 9-11 11-13 7-9 9-11 12-14 11-13 7-8 13-16 13-15 7-9 14-17 24-28 14-17 9-11 13-16 11-13 12-14 8-8 7-8 7-7 7-8 5-5h2l2-4 15-14 12-11 11-9 14-12 11-8 19-14 14-10 15-10 24-15 28-17 26-14 23-12 27-13 22-10 29-12 39-14 45-14 29-8 51-12z" fill="#247776"/>
</svg>
