<?xml version="1.0" encoding="UTF-8"?>
<svg version="1.1" viewBox="0 0 1696 1952" width="106" height="122" xmlns="http://www.w3.org/2000/svg">
<path transform="translate(1689,6)" d="m0 0h7v1946h-1576l-8-3-36-12-16-7-14-8-11-9-9-9-7-10-6-12-7-19v-23l6-27 7-19 8-18 11-18 12-17 8-11 11-13 9-11 14-17 11-14 8-9 7-9 13-16 9-11 7-8 8-10 8-9 7-9 9-11 14-17 11-14 11-13 12-14 7-9 7-8 8-10 14-17 13-17 12-14 9-11 11-13 8-10 9-11 14-17 11-14 11-13 1-2h2l2-4 9-11 11-13 8-10 11-13 11-14 8-10 9-11 12-14 11-13 11-14 11-13 10-13 11-13 8-10 8-9 8-10 11-13 11-14 11-13 7-9 11-14 9-10 18-22 7-8 7-9 13-16 8-10 13-16 7-8 13-16 11-13 11-14 8-9 10-13 18-22 12-14 9-11 10-12 11-14 14-17 11-14 10-11 8-10 11-13 11-14 11-13 11-14 14-17 7-8 13-16 10-12 11-14 11-13 7-9 13-16 12-14 11-13 18-22 12-15 9-11 8-10 9-11 12-14 9-11 11-13 7-9 13-16 8-10 9-11 11-13 13-16 11-13 9-11 8-10 13-16 8-10 12-14 9-11 11-13 11-14 11-13 11-14 13-16 9-10 7-9 7-8 8-10 11-14 13-16 9-11 3-4h2l2-4 32-32 8-7 9-8 11-9 16-12 20-14 13-9 19-12 22-13 26-14 34-16 32-13 40-14 34-10 34-8z" fill="#0cb5b5"/>
<path transform="translate(1694,544)" d="m0 0h2v1408h-20l-1-2 6-3 1-3-4-8 2-16 1-17v-29l2-6-1-10 1-4 1-27v-18l1-7v-10l1-5v-10l-1-5 1-2 1-12v-14l1-2 1-22v-22l-1-34-1-4 1-9 1-26v-145l-1-32 1-33v-102l-1-60v-83l-1-67 2-85v-28l1-58 2-58v-134l-1-111 1-36z" fill="#0cb5b5"/>
<path transform="translate(1689,6)" d="m0 0h7v337h-2l-1-11v-11l-2-38-2-77v-23l2-59v-18l-1-12v-10l-3-28-1-6 2-13v-12l-5-8-3-8z" fill="#0cb5b5"/>
</svg>
