<?xml version="1.0" encoding="UTF-8"?>
<svg version="1.1" viewBox="0 0 1760 1952" width="110" height="122" xmlns="http://www.w3.org/2000/svg">
<path transform="translate(0)" d="m0 0h1642l22 7 20 7 16 7 15 9 10 8 11 11 8 13 11 22 1 6v17l-2 15-5 17-8 20-8 15-14 21-13 18-9 12-11 14-14 17-11 13-9 11-14 17-11 14-14 17-11 13-8 10-12 14-8 10-11 14-14 17-12 14-7 9-8 9-8 10-14 17-11 14-12 14-11 14-12 14-8 10-9 11-10 12-7 9-11 13-8 10-11 13-8 10-11 13-14 17-11 14-9 11-11 13-8 10-14 17-11 13-11 14-18 22-11 13-11 14-3 4h-2l-2 4-9 11-8 9-11 14-13 16-11 14-9 10-11 14-12 14-9 11-13 16-9 11-8 10-14 17-11 13-18 22-10 12-10 13-11 13-9 11-11 13-11 14-10 11-11 14-12 15-9 11-11 13-11 14-9 10-8 10-14 17-7 9-9 11-8 10-14 17-12 14-9 11-13 16-14 17-11 14-12 14-11 14-12 14-1 2h-2l-2 4-13 16-11 14-9 11-11 13-9 11-11 13-14 17-13 16-9 11-13 16-14 17-11 13-9 11-14 17-11 14-11 13-8 10-11 13-9 11-11 13-11 14-13 16-8 10-11 13-8 10-22 26-7 9-9 11-11 13-11 12-7 8-12 12-11 9-7 7-11 9-8 7-18 13-14 10-17 12-20 12-22 13-32 17-31 15-50 20-36 12-29 9-52 13-9 2h-56z" fill="#0cb5b5"/>
<path transform="translate(1582)" d="m0 0h60l22 7 20 7 16 7 15 9 10 8 11 11 8 13 11 22 1 6v17l-2 15-5 17-8 20-8 15-8 12h-4l-1-5-4-2 5-7v-3l-2-1 1-2 3-1-3-7-3-3-3-8-2-6v-3l-2-3-4 2-3-4v-3l-7 1-1-12 2-3-2-1 2-9 2-2-5-5-1-5-6-1-2-5v-5l1-2-1-6h-2v-2l-4-1-2-2v-5l-7-1-6-2-5-3v-5l-4-4-2-7-5-1-4-6-2-1v-2l-7-2-4-6-7-3-5-3-13-4v-2l-11-2 1-3-14-2h-5l2-1v-2z" fill="#0cb5b5"/>
<path transform="translate(6,1817)" d="m0 0 2 4v5l2-5h4l3 7 1 3v7l1 5 3 6-1 5-2 5 3 1-1 9 2 5 3 2-2 9h-2l4 8v3h2l3 7-3 4h-2v9 3l-1 2h-3l-1 4h3v5l2 1-1 3-3-2h-6l-2 5-3 5-3 6-2 1 1 3h-7v-131l4 2z" fill="#0cb5b5"/>
<path transform="translate(0)" d="m0 0h28l1 4-3 2h-3l1 3-4 4-2 3h-2l-1 2-7 4-2 1-1-3-2 3-3-5z" fill="#0cb5b5"/>
<path transform="translate(177,1911)" d="m0 0h6v2l-4 4-9 3h-5l-2-5 5-2z" fill="#0cb5b5"/>
<path transform="translate(780,1337)" d="m0 0h3l-2 4-2 3h-2l-2 4h-4l2-4 5-5z" fill="#0cb5b5"/>
<path transform="translate(168,1913)" d="m0 0h3l-1 4-2 3-4-1-1-4z" fill="#0cb5b5"/>
<path transform="translate(1148,889)" d="m0 0h2l-1 4-7 8h-2l1-5 5-5z" fill="#0cb5b5"/>
</svg>
